<svg version="1.2" xmlns="http://www.w3.org/2000/svg" viewBox="0 0 1579 537" width="1579" height="537">
	<title>download (7)-svg</title>
	<style>
		.s0 { fill: #fa4616 } 
	</style>
	<g id="Page-1">
		<path id="UiPath_Logo_full" fill-rule="evenodd" class="s0" d="m0 0h537.3v537h-537.3zm55.9 481.2h425.5v-425.4h-425.5zm103.1-342.6v162.2c0 40.8 17.2 65.5 55.9 65.5 36.5 0 54.8-23.6 54.8-65.5v-162.2h55.9v162.2c0 74.1-40.9 118.2-111.8 118.2-68.7 0-109.6-44.1-109.6-118.2v-162.2zm238.6 33.3c-19 0-34.4-15.1-34.4-33.8 0-18.7 15.4-33.8 34.4-33.8 19 0 34.4 15.1 34.4 33.8 0 18.7-15.4 33.8-34.4 33.8zm-28 25.8h55.9v218h-55.9zm333.1 130h-49.4v89.1h-55.9v-278.1h105.3c61.3 0 100 36.5 100 93.4 0 59.1-39.8 94.5-100 94.5zm43-95.6c0-30-17.2-48.3-49.4-48.3h-44.1v98.8h44.1c32.2 0 49.4-18.3 49.4-50.5zm176.2-36.5c34.4 0 57 14 71 36.5v-34.3h55.8v219.1h-55.8v-31.2c-12.9 20.4-35.5 33.3-71 33.3-59.1 0-101-46.2-101-111.7 0-64.4 40.9-111.7 101-111.7zm71 111.2c0-34.8-25.7-62.9-57.5-62.9-31.8 0-57.5 28.1-57.5 62.9 0 34.7 25.7 62.8 57.5 62.8 31.8 0 57.5-28.1 57.5-62.8zm218.1 61.7v47.3h-29c-53.7 0-76.3-24.7-76.3-76.3v-94.5h-25.8v-47.2h25.8v-60.2h55.9v60.2h48.3v47.2h-48.3v94.5c0 19.4 5.3 29 26.8 29zm151.5-172.9c51.6 0 92.4 37.6 92.4 94.5v125.7h-55.8v-120.3c0-33.3-17.2-54.8-49.5-54.8-33.3 0-52.6 22.6-52.6 60.2v116h-55.9v-291.1h55.9v103.1c12.9-21.5 33.3-33.3 65.5-33.3zm134.3-70.9v8.6h-17.1v55.9h-10.8v-55.9h-18.3v-8.6zm81.7 0v64.5h-9.7v-49.4l-20.4 49.4h-7.5l-21.5-49.4v49.4h-9.7v-64.5h12.9l21.5 51.6 22.6-51.6z"/>
	</g>
</svg>